<svg width="30" height="30" viewBox="0 0 30 30" fill="none" xmlns="http://www.w3.org/2000/svg">
<g id="Iconly/Bold/Document">
<g id="Document">
<path id="Vector" d="M21.985 0C27.1333 0 30 2.67 30 7.245V22.74C30 27.39 27.1333 30 21.985 30H8.01667C2.95 30 0 27.39 0 22.74V7.245C0 2.67 2.95 0 8.01667 0H21.985ZM8.46667 20.61C7.96667 20.565 7.48333 20.775 7.21667 21.165C6.95 21.54 6.95 22.035 7.21667 22.425C7.48333 22.8 7.96667 23.025 8.46667 22.965H21.5333C22.1983 22.905 22.7 22.3935 22.7 21.795C22.7 21.18 22.1983 20.67 21.5333 20.61H8.46667ZM21.5333 13.7685H8.46667C7.74833 13.7685 7.16667 14.295 7.16667 14.94C7.16667 15.585 7.74833 16.11 8.46667 16.11H21.5333C22.25 16.11 22.8333 15.585 22.8333 14.94C22.8333 14.295 22.25 13.7685 21.5333 13.7685ZM13.4483 6.975H8.46667V6.99C7.74833 6.99 7.16667 7.515 7.16667 8.16C7.16667 8.805 7.74833 9.33 8.46667 9.33H13.4483C14.1667 9.33 14.75 8.805 14.75 8.1435C14.75 7.5 14.1667 6.975 13.4483 6.975Z" fill="black"/>
</g>
</g>
</svg>
