<svg width="30" height="30" viewBox="0 0 30 30" fill="none" xmlns="http://www.w3.org/2000/svg">
<g id="Iconly/Bold/Home">
<g id="Home">
<path id="Vector" d="M10.476 28.16V23.5734C10.476 22.4026 11.4824 21.4534 12.7238 21.4534H17.262C17.8582 21.4534 18.4299 21.6768 18.8515 22.0744C19.2731 22.4719 19.5099 23.0112 19.5099 23.5734V28.16C19.5061 28.6468 19.7085 29.1148 20.0722 29.4603C20.4358 29.8057 20.9306 30 21.4468 30H24.5429C25.9889 30.0035 27.377 29.4642 28.4008 28.5012C29.4246 27.5381 30 26.2305 30 24.8667V11.8003C30 10.6987 29.4822 9.65376 28.5862 8.947L18.0537 1.0138C16.2216 -0.377157 13.5965 -0.332247 11.819 1.12047L1.52686 8.947C0.588538 9.63292 0.0277141 10.6809 0 11.8003V24.8534C0 27.6958 2.44323 30 5.45712 30H8.48256C9.55457 30 10.4258 29.1843 10.4336 28.1733L10.476 28.16Z" fill="black"/>
</g>
</g>
</svg>
