<svg width="64" height="60" viewBox="0 0 64 60" fill="none" xmlns="http://www.w3.org/2000/svg">
<g id="3 User">
<g id="Iconly/Bold/3-User">
<g id="3-User">
<path id="3-Friends" d="M31.8644 36.3491C41.0142 36.3491 48.8269 37.709 48.8269 43.1509C48.8269 48.5905 41.0644 50 31.8644 50C22.7146 50 14.9019 48.6401 14.9019 43.2004C14.9019 37.7585 22.6644 36.3491 31.8644 36.3491ZM46.4938 33.0722C49.9919 33.0114 53.7526 33.4617 55.1422 33.7814C58.0863 34.324 60.0228 35.4318 60.8251 37.0416C61.5032 38.3633 61.5032 39.8965 60.8251 41.2159C59.5978 43.7129 55.6413 44.5144 54.1036 44.7215C53.786 44.7666 53.5305 44.5076 53.5639 44.2082C54.3495 37.2893 48.1008 34.0088 46.4843 33.2546C46.4151 33.2208 46.4007 33.169 46.4079 33.1375C46.4127 33.115 46.4413 33.0789 46.4938 33.0722ZM17.5086 33.0731C17.5611 33.0799 17.5874 33.1159 17.5922 33.1361C17.5993 33.1699 17.585 33.2194 17.5181 33.2555C15.8993 34.0097 9.65054 37.2902 10.4361 44.2068C10.4695 44.5085 10.2164 44.7652 9.89886 44.7224C8.36116 44.5153 4.40467 43.7138 3.17737 41.2168C2.49687 39.8952 2.49687 38.3642 3.17737 37.0425C3.97965 35.4327 5.91372 34.3249 8.85781 33.7801C10.2499 33.4626 14.0082 33.0123 17.5086 33.0731ZM31.8644 10C38.094 10 43.0892 14.7057 43.0892 20.5821C43.0892 26.4563 38.094 31.1665 31.8644 31.1665C25.6348 31.1665 20.6396 26.4563 20.6396 20.5821C20.6396 14.7057 25.6348 10 31.8644 10ZM47.1027 11.7647C53.1198 11.7647 57.8452 17.1031 56.2358 23.0493C55.1494 27.0525 51.2168 29.7116 46.8353 29.6035C46.396 29.5923 45.9638 29.554 45.5459 29.4864C45.2427 29.4369 45.0899 29.1149 45.2618 28.8763C46.9332 26.5572 47.8859 23.7676 47.8859 20.7731C47.8859 17.648 46.8448 14.7345 45.0373 12.3456C44.98 12.2713 44.937 12.1565 44.9943 12.0709C45.0421 12.0011 45.1304 11.9651 45.214 11.9471C45.8229 11.83 46.4485 11.7647 47.1027 11.7647ZM16.8961 11.7645C17.5504 11.7645 18.176 11.8298 18.7872 11.9469C18.8684 11.9649 18.9591 12.0032 19.0069 12.0707C19.0618 12.1563 19.0212 12.2711 18.9639 12.3454C17.1564 14.7343 16.1153 17.6477 16.1153 20.7728C16.1153 23.7674 17.0681 26.557 18.7395 28.876C18.9114 29.1147 18.7586 29.4367 18.4553 29.4862C18.0351 29.556 17.6053 29.592 17.1659 29.6033C12.7844 29.7114 8.85184 27.0523 7.76541 23.0491C6.15369 17.1029 10.879 11.7645 16.8961 11.7645Z" fill="black"/>
</g>
</g>
</g>
</svg>
