<svg width="15" height="23" viewBox="0 0 15 23" fill="none" xmlns="http://www.w3.org/2000/svg">
<path id="Vector" d="M10.6018 14.0596H9.93172L9.69424 13.7145C10.5254 12.2575 11.0258 10.3658 11.0258 8.30797C11.0258 3.71942 8.55774 0 5.51291 0C2.46809 0 0 3.71942 0 8.30797C0 12.8965 2.46809 16.6159 5.51291 16.6159C6.87842 16.6159 8.13367 15.8618 9.10055 14.6093L9.32954 14.9671V15.9769L13.5702 22.3548L14.834 20.4504L10.6018 14.0596ZM5.51291 14.0596C3.40104 14.0596 1.69628 11.4906 1.69628 8.30797C1.69628 5.12538 3.40104 2.5563 5.51291 2.5563C7.62478 2.5563 9.32954 5.12538 9.32954 8.30797C9.32954 11.4906 7.62478 14.0596 5.51291 14.0596Z" fill="black"/>
</svg>
