<svg width="40" height="40" viewBox="0 0 40 40" fill="none" xmlns="http://www.w3.org/2000/svg">
<g id="&#240;&#159;&#166;&#134; icon &#34;history&#34;">
<path id="Vector" d="M22.1002 4.99923C13.6169 4.76589 6.66688 11.5826 6.66688 19.9992H3.68355C2.93355 19.9992 2.56688 20.8992 3.10021 21.4159L7.75021 26.0826C8.08355 26.4159 8.60021 26.4159 8.93355 26.0826L13.5835 21.4159C14.1002 20.8992 13.7335 19.9992 12.9835 19.9992H10.0002C10.0002 13.4992 15.3002 8.24923 21.8335 8.33256C28.0335 8.41589 33.2502 13.6326 33.3335 19.8326C33.4169 26.3492 28.1669 31.6659 21.6669 31.6659C18.9835 31.6659 16.5002 30.7492 14.5335 29.1992C13.8669 28.6826 12.9335 28.7326 12.3335 29.3326C11.6335 30.0326 11.6835 31.2159 12.4669 31.8159C15.0002 33.8159 18.1835 34.9992 21.6669 34.9992C30.0835 34.9992 36.9002 28.0492 36.6669 19.5659C36.4502 11.7492 29.9169 5.21589 22.1002 4.99923ZM21.2502 13.3326C20.5669 13.3326 20.0002 13.8992 20.0002 14.5826V20.7159C20.0002 21.2992 20.3169 21.8492 20.8169 22.1492L26.0169 25.2326C26.6169 25.5826 27.3835 25.3826 27.7335 24.7992C28.0835 24.1992 27.8835 23.4326 27.3002 23.0826L22.5002 20.2326V14.5659C22.5002 13.8992 21.9335 13.3326 21.2502 13.3326Z" fill="black"/>
</g>
</svg>
